<?xml version="1.0" encoding="UTF-8"?>
<svg id="Laag_1" data-name="Laag 1" xmlns="http://www.w3.org/2000/svg" viewBox="0 0 155.21 84.75">
  <defs>
    <style>
      .cls-1 {
        fill: #b51f1d;
      }

      .cls-2 {
        fill: #af5e2a;
      }

      .cls-3 {
        fill: #cc5758;
      }
    </style>
  </defs>
  <g>
    <path class="cls-2" d="M2.88,52.16c-3.98-3.49-3.43-12.86-.81-18.39,2.73-5.77,8.23-9.96,14.29-11.96,1.95-.64,3.98-1.09,5.84-1.96,2.51-1.18,4.59-3.09,6.83-4.72,4.81-3.51,10.37-5.81,15.88-8.08C53.35,3.58,62.02,.05,71.14-.24c3.16-.1,6.45,.22,9.21,1.77,1.71,.96,3.15,2.33,4.76,3.46,1.8,1.26,3.83,2.2,5.49,3.65s2.75,2.74,2.35,4.9c-6.26-4.59-15.16-5.41-22.79-3.98-2.7,.51-5.32,1.4-7.9,2.37-9.48,3.56-18.53,8.14-27.57,12.71-9.23,4.67-18.47,9.34-27.7,14.01-.45,.23-.91,.47-1.22,.86-.51,.65-.5,1.54-.52,2.36-.11,3.55-.15,7.54-2.37,10.3Z"/>
    <path class="cls-3" d="M92.95,13.53c-2.18,.31-4.34,.7-6.48,1.18-5.97,1.34-11.78,3.33-17.31,5.92-3.78,1.76-7.42,3.8-10.89,6.11-6.75,4.49-13.06,10.07-20.87,12.27-.33,.09-.66,.18-1,.25t0,0c-3.44,.85-7,1.11-10.44,1.96-4.85,1.19-9.3,3.52-13.47,6.21-.55,.35-1.1,.71-1.64,1.08-1.25,.85-5.04,4.68-6.55,4.48-2.24-.29-2.72-4-2.63-5.83,.12-2.54,1.12-4.95,2.1-7.3,.91-2.16,1.84-4.34,3.23-6.22,2.69-3.65,6.85-5.85,10.87-7.94,8.01-4.17,16.03-8.34,24.05-12.5C52.57,7.65,64.21,1.94,76.06,3.93c5.31,.89,10.35,3.35,14.31,6.99,.9,.83,1.74,1.72,2.58,2.61Z"/>
    <g>
      <path class="cls-1" d="M36.39,39.26c-3.44,.85-7,1.11-10.44,1.96-4.85,1.19-9.3,3.52-13.47,6.21-.75-4.85,.22-15.94,20.96-24.74-.39,.45-10.43,12.19,2.95,16.57Z"/>
      <path class="cls-1" d="M34.26,31.78c-.28-1.01,.09-2.17,.91-2.82,.55-.44,1.25-.65,1.82-1.08,1.58-1.19,1.57-3.55,2.55-5.26,.77-1.33,2.12-2.22,3.46-2.97,4.24-2.38,8.87-3.97,13.48-5.52,1.67-.56,3.9-.95,4.87,.52,.71,1.07,.22,2.6-.72,3.47-.94,.88-2.21,1.29-3.42,1.73-2.18,.81-4.28,1.84-6.27,3.06-.82,.51-1.63,1.06-2.26,1.79-.73,.85-1.16,1.91-1.78,2.85-1.51,2.3-11.33,9.01-12.66,4.22Z"/>
      <path class="cls-1" d="M86.47,14.71c-5.97,1.34-11.78,3.33-17.31,5.92-1.12-13.14-13.22-9.18-13.83-8.97,13.52-9.37,27.45,.17,31.14,3.05Z"/>
    </g>
  </g>
  <g>
    <path class="cls-2" d="M152.64,34.51c3.87,3.62,3.02,12.96,.24,18.41-2.91,5.68-8.54,9.69-14.66,11.5-1.97,.58-4.01,.96-5.9,1.78-2.55,1.1-4.69,2.94-6.97,4.51-4.91,3.36-10.55,5.48-16.12,7.58-8.55,3.21-17.32,6.46-26.45,6.47-3.17,0-6.44-.43-9.15-2.06-1.68-1.01-3.07-2.43-4.64-3.6-1.76-1.31-3.76-2.32-5.37-3.82-1.61-1.5-2.66-2.82-2.2-4.97,6.11,4.79,14.98,5.88,22.65,4.69,2.72-.42,5.36-1.23,7.97-2.12,9.58-3.26,18.78-7.55,27.95-11.84,9.38-4.38,18.75-8.76,28.13-13.14,.46-.21,.93-.44,1.25-.82,.53-.63,.54-1.53,.6-2.35,.22-3.54,.39-7.53,2.7-10.22Z"/>
    <path class="cls-3" d="M61.4,70.3c2.19-.24,4.36-.56,6.51-.98,6.01-1.15,11.88-2.96,17.49-5.37,3.83-1.64,7.54-3.57,11.08-5.77,6.89-4.28,13.37-9.66,21.24-11.61,.33-.08,.67-.16,1.01-.22t0,0c3.46-.74,7.03-.89,10.5-1.63,4.88-1.04,9.41-3.23,13.66-5.78,.56-.33,1.12-.68,1.67-1.03,1.28-.81,5.18-4.52,6.69-4.27,2.23,.36,2.59,4.08,2.45,5.91-.2,2.53-1.27,4.91-2.33,7.23-.98,2.13-1.98,4.28-3.42,6.12-2.8,3.56-7.03,5.63-11.11,7.6-8.14,3.92-16.28,7.83-24.43,11.74-10.83,5.21-22.64,10.56-34.42,8.2-5.28-1.06-10.24-3.67-14.08-7.43-.87-.86-1.69-1.77-2.5-2.69Z"/>
    <g>
      <path class="cls-1" d="M118.74,46.36c3.46-.74,7.03-.89,10.5-1.63,4.88-1.04,9.41-3.23,13.66-5.78,.6,4.87-.72,15.93-21.72,24.07,.4-.44,10.81-11.86-2.43-16.65Z"/>
      <path class="cls-1" d="M120.63,53.9c.25,1.02-.16,2.16-1,2.79-.56,.42-1.27,.61-1.85,1.02-1.61,1.14-1.68,3.5-2.72,5.18-.81,1.31-2.19,2.15-3.56,2.86-4.31,2.25-8.99,3.69-13.64,5.09-1.69,.51-3.93,.83-4.85-.67-.68-1.09-.14-2.6,.83-3.45,.97-.85,2.25-1.22,3.47-1.63,2.21-.74,4.34-1.7,6.36-2.86,.84-.48,1.67-1,2.31-1.72,.75-.83,1.22-1.87,1.87-2.79,1.58-2.25,11.61-8.65,12.78-3.83Z"/>
      <path class="cls-1" d="M67.91,69.33c6.01-1.15,11.88-2.96,17.49-5.37,.71,13.17,12.93,9.59,13.54,9.4-13.81,8.94-27.43-1.03-31.03-4.02Z"/>
    </g>
  </g>
  <g>
    <path class="cls-2" d="M37.76,67.15c-3.83-3.86-3.3-13.17-.78-18.46,2.63-5.52,7.92-9.2,13.76-10.64,1.88-.47,2.33-3.07,4.12-3.77,2.42-.95,4.73-1.7,6.89-3.13,4.63-3.07,12.73-6.85,18.03-8.61,8.13-2.7,14.93-2.05,23.71-1.5,3.05,.19,6.21,.82,8.87,2.61,1.65,1.11,3.03,2.62,4.58,3.89,1.74,1.42,3.69,2.55,5.28,4.15,1.59,1.6,2.65,2.99,2.26,5.12-6.03-5.17-14.59-6.8-21.94-6.08-2.6,.26-5.12,.91-7.6,1.64-9.13,2.69-17.85,6.43-26.55,10.17-8.89,3.82-17.79,7.64-26.68,11.46-.43,.19-.88,.38-1.18,.75-.49,.6-.48,1.5-.5,2.32-.11,3.54-.14,7.52-2.29,10.08Z"/>
    <path class="cls-3" d="M124.49,36.81c-1.99,.1-3.95,.28-5.89,.54h-.01c-.11,.02-.22,.03-.33,.05-5.75,.79-11.34,2.25-16.67,4.33-.16,.07-.32,.13-.48,.19-3.47,1.37-6.81,3.01-10.01,4.91-6.5,3.87-12.58,8.87-20.1,10.35-.32,.06-.64,.12-.96,.16t-.01,0c-3.31,.53-6.74,.47-10.05,1-2,.32-3.93,.84-5.8,1.54-2.49,.92-4.88,2.11-7.18,3.43-.53,.3-1.05,.61-1.58,.93-.44,.28-1.23,.93-2.12,1.64-1.5,1.17-3.28,2.46-4.19,2.24-2.15-.5-2.62-4.25-2.53-6.07,.12-2.53,1.09-4.85,2.03-7.11,.88-2.08,1.77-4.17,3.11-5.92,2.58-3.4,6.6-5.22,10.46-6.94,7.71-3.43,15.44-6.86,23.16-10.29,10.27-4.57,21.48-9.21,32.88-6.13,5.12,1.38,9.97,4.3,13.78,8.31,.87,.91,1.67,1.88,2.48,2.85Z"/>
    <g>
      <path class="cls-1" d="M103.61,29.89c-.38-.49-1.08-.56-1.68-.58-9.07-.2-17.96,1.78-25.66,5.71-5.38,2.74-10.23,6.44-16.08,8.24-2.48,.76-5.16,1.2-7.25,2.64-1.4,.97-2.75,3.13-2.52,4.34-.02,.81,.22,1.66,.68,2.4,.97,1.58,2.64,2.41,4.4,2.7,3.96,.65,8.12-.72,11.8-1.55l6.32-1.43c1.6-.36,3.95-.55,4.15-2.51,.08-.8-.3-1.58-.91-2.18-.71-.7-1.58-.81-2.43-1.19-3.42-1.55-.44-4.49,1.13-5.58,7.42-5.12,16.39-8.21,25.81-8.89,.66-.05,1.35-.09,1.88-.45,.52-.35,.78-1.13,.36-1.68Z"/>
      <path class="cls-1" d="M54.18,59.87c-2.49,.92-4.88,2.11-7.18,3.43-.53,.3-1.05,.61-1.58,.93-.44,.28-1.23,.93-2.12,1.64-3.66-10.03,3.03-16.71,3.03-16.71-.69,6.42,4.28,9.41,7.85,10.71Z"/>
      <path class="cls-1" d="M118.58,37.35c-.11,.02-.22,.03-.33,.05-5.75,.79-11.34,2.25-16.67,4.33-.16,.07-.32,.13-.48,.19-11.12-2.86-23.24,2-23.24,2,18.65-12.42,33.84-9.22,40.72-6.57Z"/>
      <path class="cls-1" d="M107.96,29.1c.84-.25,1.79-.11,2.68,.09,2.5,.58,4.93,1.67,7.06,3.18,.77,.55,1.52,1.17,2.01,1.96,.06,.1,.12,.21,.11,.33-.02,.27-.37,.33-.64,.33-2.43,0-4.9-.5-7.22-1.45-.91-.37-1.8-.79-2.76-.98-.55-.11-1.21,0-1.72-.29-1.64-.9-.9-2.76,.47-3.18Z"/>
    </g>
  </g>
</svg>