<?xml version="1.0" encoding="UTF-8"?>
<svg id="Laag_1" data-name="Laag 1" xmlns="http://www.w3.org/2000/svg" viewBox="0 0 162.88 92.17">
  <defs>
    <style>
      .cls-1 {
        fill: #fcca6b;
      }

      .cls-2 {
        fill: #db864a;
      }
    </style>
  </defs>
  <path class="cls-2" d="M.11,35.05c.04,4.43,.08,8.86,.12,13.29,.01,1.37,.03,2.79,.57,4.05,.79,1.87,2.57,3.11,4.26,4.23,12.27,8.15,24.78,15.94,37.5,23.37,5.75,3.36,11.58,6.66,17.84,8.92,13.52,4.89,29.26,4.5,41.67-2.76,3.68-2.15,7.01-4.85,10.48-7.33,14.01-9.99,30.26-16.3,45.2-24.84,1.87-1.07,3.85-2.33,4.57-4.36,.34-.95,.36-1.98,.38-2.98,.07-3.79,.13-7.57,.2-11.36-16.93,3.86-34.74,3.23-52.1,3.54-25.75,.47-51.5,.93-77.24,1.4-2.96,.05-5.94,.11-8.86-.4-3.63-.63-7.05-2.11-10.59-3.12-4.42-1.26-9.4-1.9-13.99-1.65Z"/>
  <path class="cls-1" d="M5.77,27.85c10.05-5.3,21.89-6.11,32.35-10.56,6.8-2.9,12.85-7.27,19.28-10.92C63.83,2.73,70.95-.27,78.34,.02c4.73,.18,9.3,1.7,13.78,3.26,22.98,8,45.49,17.38,67.35,28.07,1.11,.54,2.29,1.15,2.9,2.23,1.16,2.06-.33,4.6-2,6.28-4.97,4.98-11.81,7.52-18.35,10.13-13.79,5.51-27.19,11.98-40.08,19.35-2.78,1.59-5.55,3.22-8.52,4.42-9.19,3.71-19.71,2.95-29.14-.1-9.43-3.05-18.01-8.24-26.48-13.38-9-5.46-18-10.92-27-16.38-2.76-1.67-8.96-3.92-10.36-7.01-1.79-3.96,2.29-7.45,5.33-9.05Z"/>
</svg>