<?xml version="1.0" encoding="UTF-8"?>
<svg id="Laag_1" data-name="Laag 1" xmlns="http://www.w3.org/2000/svg" viewBox="0 0 162.3 93.01">
  <defs>
    <style>
      .cls-1 {
        fill: #f5e83a;
      }

      .cls-2 {
        fill: #fcca6b;
      }

      .cls-3 {
        fill: #db864a;
      }
    </style>
  </defs>
  <g>
    <path class="cls-3" d="M.11,35.05c.04,4.43,.08,8.86,.12,13.29,.01,1.37,.03,2.79,.57,4.05,.79,1.87,2.57,3.11,4.26,4.23,12.27,8.15,24.78,15.94,37.5,23.37,5.75,3.36,11.58,6.66,17.84,8.92,13.52,4.89,29.26,4.5,41.67-2.76,3.68-2.15,7.01-4.85,10.48-7.33,14.01-9.99,30.26-16.3,45.2-24.84,1.87-1.07,3.85-2.33,4.57-4.36,.34-.95,.36-1.98,.38-2.98,.07-3.79,.13-7.57,.2-11.36-16.93,3.86-34.74,3.23-52.1,3.54-25.75,.47-51.5,.93-77.24,1.4-2.96,.05-5.94,.11-8.86-.4-3.63-.63-7.05-2.11-10.59-3.12-4.42-1.26-9.4-1.9-13.99-1.65Z"/>
    <path class="cls-2" d="M5.77,27.85c10.05-5.3,21.89-6.11,32.35-10.56,6.8-2.9,12.85-7.27,19.28-10.92C63.83,2.73,70.95-.27,78.34,.02c4.73,.18,9.3,1.7,13.78,3.26,22.98,8,45.49,17.38,67.35,28.07,1.11,.54,2.29,1.15,2.9,2.23,1.16,2.06-.33,4.6-2,6.28-4.97,4.98-11.81,7.52-18.35,10.13-13.79,5.51-27.19,11.98-40.08,19.35-2.78,1.59-5.55,3.22-8.52,4.42-9.19,3.71-19.71,2.95-29.14-.1-9.43-3.05-18.01-8.24-26.48-13.38-9-5.46-18-10.92-27-16.38-2.76-1.67-8.96-3.92-10.36-7.01-1.79-3.96,2.29-7.45,5.33-9.05Z"/>
  </g>
  <path class="cls-1" d="M13.02,31.86c2.26-.31,1.57,1.57,2.06,2.89,.71,1.87-.63,1.47,1.49,2.31,2.54,1.02,7.64-2.25,7.63,2.6,2.62,1.08,5.59,.86,8.4,.86,2.6,0,2.52,.47,4.53,1.44,.8,.39,3.2,.48,4.04,1.15,1.27,1.02,.87,4.52,1.55,6.07,1.78,4.05,5.5,3.46,9.35,2.7,1.61-.32,3.61-1.34,5.23-.42,2.52,1.43,1.05,3.43,1.69,5.49,.55,1.76,3.14,2.8,4.83,2.79,2.48-.02,2.67-3.22,5.17-2.88,.94,.13,1.78,.62,2.65,1,2.44,1.08,5.12,1.27,7.72,.76,2.29-.45,3.84-2.4,5.85-2.81,1.54-.31,3.01,.27,4.19,1.23,2.3,1.9,3.55,8.35,7.91,6.06,1.59-.84,1.21-2.36,2.59-3.49,1.58-1.28,3.87-.36,5.61-.63,4.21-.66,6.42-5.71,10.85-6.59,1.74-.34,4.35,.64,5.95-.03,3.05-1.26,4.44-5.94,7.46-7.69,3.79-2.2,7.88-.34,11.48-3.09,2.91-2.23,5.17-5.53,1.44-8.27-3.11-2.28-7.19-.47-10.56-2.83-1.37-.96-2.12-2.49-3.42-3.45-1.66-1.23-3.1-.77-5.5-.94-4.99-.35-9.88-3.03-14.64-4.62-2.48-.83-2.58-2.28-4.37-3.55-1.18-.84-2.98-.51-3.93-1.49-1.65-1.69-.44-5.12-2.53-6.23-1.14-.61-4.36,.01-5.73,.01-1.65,0-3.36,.21-4.9,.29-2.31,.11-2.77-.41-4.88-.84-2.29-.47-3.69-.57-5.82-1.25-1.39-.44-5.87-1.22-7.42-.46-1.85,.9-1.42,3.37-2.81,4.81-1.79,1.85-3.7,1.23-5.95,1.49-4.19,.5-2.52,3.06-5.17,5.21-1.65,1.34-5.05,.43-7.07,1.39-3.3,1.57-4.5,2.92-8.36,3.21-2.48,.19-4.56-.18-6.36,1.72-1.78,1.88-1.13,3.6-4.06,4.35-2.06,.53-4.63-.37-6.57-.86-2.2-.56-4.89-1.43-7.2-.9-.94,.22-2.95,1.14-3.05,2.1-.26,2.41,4.17,1.84,5.34,1.96"/>
</svg>