<?xml version="1.0" encoding="UTF-8"?>
<svg id="Laag_1" data-name="Laag 1" xmlns="http://www.w3.org/2000/svg" viewBox="0 0 154.77 66.29">
  <defs>
    <style>
      .cls-1 {
        fill: #f3b13d;
      }

      .cls-2 {
        fill: #00933a;
      }

      .cls-3 {
        fill: #fcca6b;
      }
    </style>
  </defs>
  <g>
    <path class="cls-1" d="M154.82,36.61l-.05-2.67-2.9-.06c-5.81-3.42-11.61-6.83-17.42-10.25-5.53-3.25-11.16-6.55-17.57-8.28-4.8-1.29-9.89-1.66-14.74-2.81-5.63-1.32-10.91-3.69-15.36-6.88-1.45-1.04-2.95-2.23-4.84-2.43-1.72-.19-3.39,.49-4.97,1.1-8.73,3.37-18.23,5.31-27.81,5.68-2.95,.11-5.96,.09-8.77,.85-4.21,1.14-7.46,3.91-10.81,6.34-5.93,4.31-12.64,7.85-19.83,10.45-2.66,.96-5.01,2.06-6.69,3.22l-2.64-.05v3.22c-.04,.23-.04,.46,0,.7H.42c.25,1.55,2.29,3.05,6.92,4.32,9.67,2.67,19.04,5.81,28.2,9.57,13.29,5.45,26.07,11.84,39.79,16.46,1.53,.51,3.09,1.01,4.72,1.15,2.37,.2,4.73-.36,7-.95,18.29-4.72,35.82-11.51,52-20.13,4.47-2.38,9-4.95,13.96-6.32,1.23-.34,1.86-1.3,1.79-2.25h.02Z"/>
    <path class="cls-3" d="M9.75,24.45c7.19-2.6,13.9-6.14,19.83-10.45,3.35-2.44,6.6-5.2,10.81-6.34,2.81-.76,5.82-.74,8.77-.85,9.59-.37,19.08-2.31,27.81-5.68,1.58-.61,3.25-1.28,4.97-1.1,1.89,.2,3.39,1.39,4.84,2.43,4.45,3.2,9.73,5.56,15.36,6.88,4.86,1.14,9.94,1.51,14.74,2.81,6.41,1.73,12.05,5.02,17.57,8.28,6.4,3.77,12.81,7.54,19.21,11.3,.01,0,.03,.02,.04,.03,1.76,1.04,1.35,3.33-.7,3.89-4.96,1.36-9.49,3.94-13.96,6.32-16.18,8.62-33.72,15.41-52,20.13-2.28,.59-4.63,1.15-7,.95-1.64-.14-3.2-.63-4.72-1.15-13.72-4.62-26.5-11.01-39.79-16.46-9.15-3.75-18.53-6.9-28.2-9.57-12.05-3.33-6.58-8.15,2.41-11.41Z"/>
  </g>
  <g>
    <path class="cls-2" d="M24.56,33.4c-.07-.09-.17-.17-.3-.19-.25-.04-.51-.09-.76-.13-.13-.02-.26-.02-.38,.04-.1,.05-.2,.15-.23,.25-.03,.11-.02,.23,.05,.32,.07,.09,.17,.17,.3,.19,.25,.04,.51,.09,.76,.13,.13,.02,.26,.02,.38-.04,.1-.05,.2-.15,.23-.25,.03-.11,.02-.23-.05-.32Z"/>
    <path class="cls-2" d="M37.55,25.04l-.1-.07c-.08-.04-.16-.06-.25-.06-.12,.01-.24,.03-.36,.05-.12,.03-.23,.07-.34,.11-.18,.07-.35,.17-.5,.28-.09,.07-.15,.2-.15,.3s.05,.23,.15,.3c.09,.07,.22,.13,.35,.12,.04,0,.09-.01,.13-.01,.08-.02,.14-.05,.2-.1,0,0,0,0,0,0,.09-.06,.2-.11,.3-.15,.11-.03,.22-.06,.33-.08-.04,0-.08,0-.12,.01,.07,0,.13,0,.19-.04,.06-.02,.12-.05,.16-.09,.09-.07,.15-.19,.15-.3,0-.11-.05-.22-.15-.3Z"/>
    <path class="cls-2" d="M42.16,17.93c-.02-.05-.05-.1-.1-.14-.05-.04-.1-.07-.16-.09-.06-.03-.12-.04-.19-.04-.04,0-.09,.01-.13,.02-.08,.02-.16,.06-.22,.11-.09,.08-.15,.18-.15,.3v.45c0,.06,.01,.11,.04,.16,.02,.05,.05,.1,.1,.14,.05,.04,.1,.07,.16,.09,.06,.03,.12,.04,.19,.04,.04,0,.09-.01,.13-.02,.08-.02,.16-.06,.22-.11,.09-.08,.15-.18,.15-.3v-.45c0-.06-.01-.11-.04-.16Z"/>
    <path class="cls-2" d="M46.49,17.48s-.07-.04-.1-.07c-.08-.04-.16-.06-.25-.06-.23-.02-.46-.04-.69-.06-.07,0-.13,0-.19,.04-.06,.02-.11,.05-.16,.09-.05,.04-.08,.08-.1,.14-.03,.05-.05,.1-.04,.16,0,.11,.05,.22,.15,.3,.03,.02,.07,.04,.1,.07,.08,.04,.16,.06,.25,.06,.23,.02,.46,.04,.69,.06,.07,0,.13,0,.19-.04,.06-.02,.12-.05,.16-.09,.05-.04,.08-.08,.1-.14,.03-.05,.05-.1,.04-.16,0-.11-.05-.22-.15-.3Z"/>
    <path class="cls-2" d="M58.08,14.81c-.03-.1-.12-.2-.23-.25-.11-.05-.26-.08-.38-.04-.12,.03-.24,.1-.3,.19-.06,.1-.09,.21-.05,.32,0,.01,0,.02,0,.03,0,.03,0,.07,0,.1,0,.03-.02,.07-.03,.1-.02,.03-.04,.06-.06,.09-.04,.05-.06,.1-.06,.16-.01,.06-.01,.11,0,.17,.03,.1,.12,.2,.23,.25,.12,.05,.26,.08,.38,.04,.04-.01,.08-.03,.12-.04,.07-.04,.13-.09,.18-.15,.06-.08,.11-.16,.15-.25,.03-.06,.05-.11,.06-.17,.02-.09,.03-.18,.03-.27,0-.09-.02-.19-.05-.28Z"/>
    <path class="cls-2" d="M76.54,17.74c-.07-.09-.17-.17-.3-.19-.33-.07-.66-.13-.99-.2-.13-.03-.27-.01-.38,.04-.1,.05-.2,.15-.23,.25-.03,.11-.02,.23,.05,.32,.07,.09,.17,.17,.3,.19,.33,.07,.66,.13,.99,.2,.13,.03,.27,.01,.38-.04,.1-.05,.2-.15,.23-.25,.03-.11,.02-.23-.05-.32Z"/>
    <path class="cls-2" d="M68.94,28.06c-.04-.21-.14-.42-.27-.61-.06-.09-.18-.17-.3-.19-.12-.03-.28-.02-.38,.04-.23,.12-.32,.37-.18,.58,.03,.04,.05,.08,.07,.12,.04,.09,.07,.19,.09,.28,.01,.12,.02,.23,0,.35,0,0,0-.01,0-.02-.02,.1-.01,.21,.05,.3,.06,.09,.18,.17,.3,.19,.13,.02,.27,.02,.38-.04,.1-.06,.21-.15,.23-.25,.05-.26,.06-.49,0-.75Z"/>
    <path class="cls-2" d="M74.81,27.68c-.09-.07-.22-.13-.35-.12-.42,.03-.84,.06-1.26,.09-.13,0-.25,.04-.35,.12-.09,.07-.15,.19-.15,.3,0,.11,.05,.22,.15,.3,.09,.07,.22,.13,.35,.12,.42-.03,.84-.06,1.26-.09,.13,0,.25-.04,.35-.12,.09-.07,.15-.19,.15-.3,0-.11-.05-.22-.15-.3Z"/>
    <path class="cls-2" d="M85.01,22.82c-.03-.1-.12-.2-.23-.25-.12-.05-.26-.08-.38-.04-.04,.01-.08,.03-.12,.04-.07,.04-.13,.09-.18,.15-.19,.22-.39,.45-.58,.67-.04,.05-.06,.1-.06,.16-.01,.06-.01,.11,0,.17,.03,.1,.12,.2,.23,.25,.12,.05,.26,.08,.38,.04,.04-.01,.08-.03,.12-.04,.07-.04,.13-.09,.18-.15,.19-.23,.39-.45,.58-.68,.04-.05,.06-.1,.06-.16,.01-.06,.01-.11,0-.17Z"/>
    <path class="cls-2" d="M82.36,10.53c-.24-.21-.58-.31-.92-.32-.35,0-.67,.1-.93,.29-.09,.07-.15,.2-.15,.3s.05,.23,.15,.3c.09,.07,.22,.13,.35,.12,.13,0,.24-.05,.34-.11l-.05,.03s.08-.04,.12-.06c.03,0,.06-.02,.1-.02,.03,0,.07,0,.1,0,.03,0,.07,.01,.1,.02,.03,.01,.06,.03,.09,.04,0,0,0,0,0,0,.09,.08,.22,.12,.35,.12s.27-.05,.35-.12c.18-.17,.2-.43,0-.6Z"/>
    <path class="cls-2" d="M54.69,34.29l-.46-.78c-.05-.09-.18-.17-.3-.19-.12-.03-.28-.02-.38,.04-.11,.06-.2,.14-.23,.25-.03,.11-.01,.22,.05,.32,.15,.26,.31,.52,.46,.78,.05,.09,.18,.17,.3,.19,.12,.03,.28,.02,.38-.04,.11-.06,.2-.14,.23-.25,.03-.11,.01-.22-.05-.32Z"/>
    <path class="cls-2" d="M60.23,22.48c-.02-.05-.05-.1-.1-.14-.09-.07-.22-.13-.35-.12-.04,0-.09,.01-.13,.02-.08,.02-.16,.06-.22,.11-.23,.16-.46,.32-.69,.48-.05,.04-.08,.08-.1,.14-.03,.05-.05,.1-.04,.16,0,.06,.01,.11,.04,.16,.02,.05,.05,.1,.1,.14,.09,.07,.22,.13,.35,.12,.04,0,.09,0,.13-.02,.08-.02,.16-.06,.22-.11,.23-.16,.46-.32,.69-.48,.05-.04,.08-.08,.1-.14,.03-.05,.05-.1,.04-.16,0-.06-.01-.11-.04-.16Z"/>
    <path class="cls-2" d="M99.09,31.92l-.08-.09c-.06-.05-.14-.09-.22-.11-.23-.07-.46-.13-.69-.2-.07-.02-.13-.02-.2,0-.07,0-.13,.02-.18,.05-.06,.03-.1,.06-.14,.11-.04,.04-.07,.09-.09,.14-.03,.11-.02,.23,.05,.32l.08,.09c.06,.05,.14,.09,.22,.11,.23,.07,.46,.13,.69,.2,.07,.02,.13,.02,.2,0,.07,0,.13-.02,.19-.05,.06-.03,.1-.06,.14-.11,.04-.04,.07-.09,.09-.14,.03-.11,.02-.23-.05-.32Z"/>
    <path class="cls-2" d="M114.38,28.65c-.04-.1-.11-.2-.23-.25-.11-.05-.26-.08-.38-.04-.23,.06-.46,.13-.69,.19-.12,.03-.23,.1-.3,.19-.04,.05-.06,.1-.06,.16-.01,.06-.01,.11,0,.17,.04,.1,.11,.2,.23,.25,.11,.05,.26,.08,.38,.04,.23-.06,.46-.13,.69-.19,.12-.03,.23-.1,.3-.19,.04-.05,.06-.1,.06-.16,.01-.06,.01-.11,0-.17Z"/>
    <path class="cls-2" d="M112.43,23.41c-.08-.19-.15-.39-.23-.58-.04-.1-.11-.2-.23-.25-.06-.03-.12-.05-.18-.05-.07-.01-.13-.01-.2,0-.12,.03-.24,.1-.3,.19-.06,.1-.09,.22-.05,.32,.08,.19,.15,.39,.23,.58,.04,.1,.11,.2,.23,.25,.06,.03,.12,.05,.19,.05,.07,.01,.13,0,.2,0,.12-.03,.24-.1,.3-.19,.06-.1,.09-.22,.05-.32Z"/>
    <path class="cls-2" d="M131.79,29.83c-.1-.08-.22-.12-.35-.12h-.69c-.13,0-.26,.05-.35,.12-.05,.04-.08,.08-.1,.14-.03,.05-.05,.1-.04,.16,0,.11,.05,.22,.15,.3,.1,.08,.22,.12,.35,.12h.69c.13,0,.26-.05,.35-.12,.05-.04,.08-.08,.1-.14,.03-.05,.05-.1,.04-.16,0-.11-.05-.22-.15-.3Z"/>
    <path class="cls-2" d="M126.86,37.3s-.1-.07-.16-.09c-.06-.03-.12-.04-.19-.04-.13,0-.26,.04-.35,.12-.09,.08-.15,.18-.15,.3v.58c0,.11,.06,.22,.15,.3,.04,.04,.1,.07,.16,.09,.06,.03,.12,.04,.19,.04,.13,0,.26-.04,.35-.12,.09-.08,.15-.18,.15-.3v-.58c0-.11-.06-.22-.15-.3Z"/>
    <path class="cls-2" d="M99.34,42.86c-.02-.05-.05-.1-.1-.14-.05-.04-.1-.07-.16-.09-.06-.03-.12-.04-.19-.04-.04,0-.09,.01-.13,.01-.08,.02-.16,.06-.22,.11l-.08,.09c-.04,.07-.07,.14-.07,.21v.39c0,.06,.01,.11,.04,.16,.02,.05,.05,.1,.1,.14,.04,.04,.1,.07,.16,.09,.06,.03,.12,.04,.19,.04,.04,0,.09-.01,.13-.01,.08-.02,.16-.06,.22-.11,.03-.03,.05-.06,.08-.09,.05-.07,.07-.14,.07-.21v-.39c0-.06-.01-.11-.04-.16Z"/>
    <path class="cls-2" d="M91.91,42.12c-.04-.1-.11-.2-.23-.25l-.12-.04c-.09-.02-.18-.02-.26,0l-.69,.1c-.06,.01-.12,.04-.17,.08-.05,.03-.1,.07-.13,.12-.04,.05-.06,.1-.06,.16-.01,.06-.01,.11,0,.17,.04,.1,.11,.2,.23,.25l.12,.04c.09,.02,.18,.02,.26,0,.23-.03,.46-.07,.69-.1,.06-.01,.12-.04,.17-.08,.05-.03,.1-.07,.13-.12,.04-.05,.06-.1,.06-.16,.01-.06,.01-.11,0-.17Z"/>
    <path class="cls-2" d="M78.1,42.43c-.06-.09-.18-.17-.3-.19-.13-.02-.27-.02-.38,.04-.11,.06-.19,.14-.23,.25-.08,.23-.15,.45-.23,.68-.04,.1-.01,.23,.05,.32,.06,.09,.18,.17,.3,.19,.13,.02,.27,.02,.38-.04,.11-.06,.19-.14,.23-.25l.23-.68c.04-.1,.01-.23-.05-.32Z"/>
    <path class="cls-2" d="M85,37.53c-.02-.05-.05-.1-.1-.14-.03-.02-.07-.04-.1-.07-.08-.04-.16-.06-.25-.06-.04,0-.09,.01-.13,.01-.08,.02-.16,.06-.22,.11-.08,.06-.15,.13-.23,.19-.05,.04-.08,.08-.1,.14-.03,.05-.05,.1-.04,.16,0,.06,.01,.11,.04,.16,.02,.05,.05,.1,.1,.14,.03,.02,.07,.04,.1,.07,.08,.04,.16,.06,.25,.06,.04,0,.09-.01,.13-.02,.08-.02,.16-.06,.22-.11l.23-.19s.08-.08,.1-.14c.03-.05,.05-.1,.04-.16,0-.06-.01-.11-.04-.16Z"/>
    <path class="cls-2" d="M94.98,20.5s-.07-.09-.13-.12c-.05-.04-.1-.06-.17-.08-.13-.02-.27-.02-.38,.04-.1,.06-.21,.15-.23,.25-.04,.16-.07,.32-.11,.49-.02,.06-.02,.11,0,.17,0,.06,.02,.11,.06,.16,.03,.05,.07,.09,.13,.12,.05,.04,.1,.06,.17,.08,.13,.02,.27,.02,.38-.04,.1-.06,.21-.15,.23-.25,.04-.16,.07-.32,.11-.49,.02-.06,.02-.11,0-.17,0-.06-.02-.11-.06-.16Z"/>
    <path class="cls-2" d="M99.36,16.24c-.04-.1-.11-.2-.23-.25l-.12-.04c-.09-.02-.18-.02-.26,0-.23,.03-.46,.06-.69,.1-.06,.01-.12,.04-.17,.08-.05,.03-.1,.07-.13,.12-.04,.05-.06,.1-.06,.16-.01,.06-.01,.11,0,.17,.04,.1,.11,.2,.23,.25,.04,.01,.08,.03,.12,.04,.09,.02,.18,.02,.26,0l.69-.1c.06-.01,.12-.04,.17-.08,.05-.03,.1-.07,.13-.12,.04-.05,.06-.1,.06-.16,.01-.06,.01-.11,0-.17Z"/>
    <path class="cls-2" d="M112.35,42.3l-.05-.1c-.04-.06-.1-.11-.18-.15l-.81-.48c-.06-.03-.12-.05-.18-.05-.07-.01-.13-.01-.2,0-.12,.03-.24,.1-.3,.19-.06,.1-.09,.22-.05,.32,.02,.03,.03,.07,.05,.1,.04,.06,.1,.11,.18,.15l.81,.48c.06,.03,.12,.05,.18,.05,.07,.01,.13,.01,.2,0,.12-.03,.24-.1,.3-.19,.06-.1,.09-.22,.05-.32Z"/>
    <path class="cls-2" d="M110.09,44.75s-.07-.09-.13-.12c-.05-.04-.1-.06-.17-.08-.13-.02-.27-.02-.38,.04-.03,.02-.07,.04-.1,.07-.06,.05-.1,.11-.13,.19-.08,.16-.15,.32-.23,.49-.02,.06-.02,.11,0,.17,0,.06,.02,.11,.06,.16,.03,.05,.07,.09,.13,.12,.05,.04,.1,.06,.17,.08,.13,.02,.27,.02,.38-.04,.03-.02,.07-.04,.1-.07,.06-.05,.1-.11,.13-.19l.23-.49c.02-.06,.02-.11,0-.17,0-.06-.02-.11-.06-.16Z"/>
    <path class="cls-2" d="M70.88,50.56l-.08-.09c-.06-.05-.14-.09-.22-.11l-.8-.1c-.07-.02-.13-.02-.2,0-.07,0-.13,.02-.19,.05-.1,.05-.2,.15-.23,.25-.03,.11-.02,.23,.05,.32,.03,.03,.05,.06,.08,.09,.06,.05,.14,.09,.22,.11,.27,.03,.54,.06,.8,.1,.07,.02,.13,.02,.2,0,.07,0,.13-.02,.18-.05,.1-.05,.2-.15,.23-.25,.03-.11,.02-.23-.05-.32Z"/>
    <path class="cls-2" d="M55.55,41.48c-.09-.07-.22-.14-.35-.12-.1,0-.2,.02-.3,.04-.09,.02-.19,.06-.28,.09-.14,.06-.28,.15-.39,.24-.11,.09-.21,.2-.28,.32-.04,.07-.08,.15-.11,.23-.03,.08-.04,.17-.05,.26-.01,.1,.07,.23,.15,.3,.09,.07,.23,.13,.35,.12,.13,0,.26-.04,.35-.12l.08-.09c.04-.07,.07-.14,.07-.21,0,.03-.01,.07-.02,.1,0-.05,.03-.11,.05-.16,.02-.04,.05-.07,.07-.1,.03-.03,.07-.06,.11-.09,.04-.02,.08-.04,.12-.06,.06-.02,.12-.04,.19-.04-.03,0-.07,0-.1,.01,.07,0,.13,0,.19-.04,.06-.02,.12-.05,.16-.09,.09-.07,.15-.19,.15-.3,0-.11-.05-.22-.15-.3Z"/>
    <path class="cls-2" d="M39.28,32.43l-.05-.1c-.04-.06-.1-.11-.18-.15l-.12-.04c-.09-.02-.18-.02-.26,0l-.46,.1c-.06,.01-.12,.04-.17,.08-.05,.03-.1,.07-.13,.12-.04,.05-.06,.1-.06,.16-.01,.06-.01,.11,0,.17,.02,.03,.03,.07,.05,.1,.04,.06,.1,.11,.18,.15l.12,.04c.09,.02,.18,.02,.26,0,.15-.03,.31-.06,.46-.1,.06-.01,.12-.04,.17-.08,.05-.03,.1-.07,.13-.12,.04-.05,.06-.1,.06-.16,.01-.06,.01-.11,0-.17Z"/>
  </g>
</svg>