<?xml version="1.0" encoding="UTF-8"?>
<svg id="Laag_1" data-name="Laag 1" xmlns="http://www.w3.org/2000/svg" viewBox="0 0 162.68 79.38">
  <defs>
    <style>
      .cls-1 {
        fill: #fcca6b;
      }

      .cls-2 {
        fill: #db864a;
      }
    </style>
  </defs>
  <path class="cls-2" d="M162.41,49.09c-.04-3.83-.08-7.66-.12-11.48-.01-1.19-.03-2.41-.57-3.5-.79-1.62-2.57-2.68-4.26-3.66-12.27-7.04-24.78-13.77-37.5-20.19-5.75-2.9-11.58-5.75-17.84-7.71-13.52-4.23-29.26-3.89-41.67,2.38-3.68,1.86-7.01,4.19-10.48,6.33-14.01,8.63-30.26,14.09-45.2,21.47-1.87,.92-3.85,2.01-4.57,3.76-.34,.82-.36,1.71-.38,2.58-.07,3.27-.13,6.54-.2,9.82,16.93-3.33,34.74-2.79,52.1-3.06,25.75-.4,51.5-.81,77.24-1.21,2.96-.05,5.94-.09,8.86,.35,3.63,.55,7.05,1.83,10.59,2.7,4.42,1.09,9.4,1.64,13.99,1.43Z"/>
  <path class="cls-1" d="M156.75,55.31c-10.05,4.58-21.89,5.27-32.35,9.12-6.8,2.5-12.85,6.28-19.28,9.43-6.43,3.15-13.56,5.74-20.94,5.49-4.73-.16-9.3-1.47-13.78-2.82-22.98-6.91-45.49-15.01-67.35-24.26-1.11-.47-2.29-1-2.9-1.93-1.16-1.78,.33-3.98,2-5.42,4.97-4.31,11.81-6.5,18.35-8.76,13.79-4.76,27.19-10.35,40.08-16.72,2.78-1.37,5.55-2.79,8.52-3.82,9.19-3.21,19.71-2.55,29.14,.09,9.43,2.64,18.01,7.12,26.48,11.56,9,4.72,18,9.43,27,14.15,2.76,1.45,8.96,3.39,10.36,6.05,1.79,3.42-2.29,6.44-5.33,7.82Z"/>
</svg>